<svg width="974" height="353" xmlns="http://www.w3.org/2000/svg"><path d="M476.32 53.17l2.13 1.62v5.78a2.17 2.17 0 0 0-.5.51 6.51 6.51 0 0 0-.27 1l-2.62 2.57c.26.72-.43 1-.7 1.49v1.26l-.58.58v4.64l-.69.86c-.19.61.21 1.53-.72 2v3.37l-.7.78v2.67c-.23.26-.46.5-.7.76v1.33l-.58.59c-.27.88.05 1.88-.12 2.77l.58.59a4.48 4.48 0 0 1 0 2.27l-.5.51V94l.58.59V98l-.65.71v2l-.7.76v4.05l-.5.49a2.4 2.4 0 0 0-.16.61v3.65l.62.62v7.61l-.65.65v4.77l-.63.62V134l-1.4 1.47v4l-.66.66v1.47c0 .22 0 .58.08.63 1.12.55.07 2.07 1.24 2.6v4.81l-.62.71v2.66l-.7.75a2.19 2.19 0 0 0 .66 1.38v3.39l-.58.59v4.2l.55.68c.28.83-.62 1-.63 1.58-.01.58.38.73.66 1.12v2c-.77.49-.55 1.64-1.32 2.12v3.39l.58.58v1.51l-.54.54v4.21l.67.67v2.72l.61.62v1.36l-.67.72v2l-.7.76v10.85l-.58.58v2.19l.54.54v6.26l-.58.58v4l-1.39 1.46c-.26.71.44 1 .65 1.37v3.4l-.59.59V224l.55.54v13.07l-.59.59v5.25l-1.4 2.44v15.49l-.5.5c-.41.62 0 1.32-.26 1.93l.78 1.12c0 .87-1.2 1.42-.61 2.6l-1.43 1.09v1.58c-.8.39-.51 1.45-1.29 1.95v5.64l.52.52c.06.71-.14 1.68.26 2.18a3.17 3.17 0 0 1 .51 2.06l-1.37 1.06v4.3l.7.74V290l.66.76v3l-1.63 3.24-.8.18c-.35.21-.26.57-.27.9a7.13 7.13 0 0 1-3.87 2.55l-1.56 1.62v2l-.7.75v1.94l-2.38 2.48h-2.06l-2.41 2.42c-.08.08-.17.23-.24.22a1.65 1.65 0 0 0-1.41.74c-.9-.37-1.18 1.07-2.08.72-.35.48-1 .48-1.37.77a28.55 28.55 0 0 0-2.68 2.6h-.69l-1.16 1.11c-.67.45-1.67-.21-2.15.81h-8.24l-.64-.53c-.58.59-1.63.46-2.11 1.27h-1.34l-.72.66c-.74.27-1-.48-1.46-.66h-1.8l-.81-.63h-2c-.45-.44-.85-1.12-1.41-1.32-.524-.12-1-.39-1.37-.78h-3.42c-.41-1-1.8-.33-2-1.36h-1.91c-.56-.25-1-.85-1.69-.81-.43-.77-1.16-.51-1.91-.56-.88-1.42-2.72-1.52-3.94-2.57a2.47 2.47 0 0 1-2.07-1.47c-.75-1.57-2.09-2.55-3.18-3.83v-1.33a2.43 2.43 0 0 1-.78-1.37c-.15-.48-.74-.83-1.15-1.22a3.18 3.18 0 0 0-.81-.49 4.16 4.16 0 0 1-2-3.7c-.24-.26-.46-.51-.7-.76v-1.32l-1.28-1.28V292l-1.54-.92c.59-1.46-.66-2.12-.58-3.13-.77-.66-.87-1.68-1.34-2.5l.77-1.22c-.44-1-1.47-1.55-2.13-2.44 0-.47 0-.89-.45-1-.12-.17-.22-.26-.22-.35v-3.07c0-.1 0-.24-.07-.3l-2-2v-2l-.7-.76v-2.69c-.76-.66-.78-1.77-1.65-2.41a5.08 5.08 0 0 1-1.73-1.79c-.12-.74.4-.92.65-1.28v-1.36c-.63-.63-1.24-1.31-1.93-1.9a3 3 0 0 1-.95-1.65c-1.06-.48-.12-1.69-.93-2.37a3.39 3.39 0 0 1-.92-2 5.83 5.83 0 0 0-1.76-3.36 5.73 5.73 0 0 1-1.64-3.4c-.09-.6-.84-.73-.74-1.41a1.38 1.38 0 0 0-.25-1.26 5.76 5.76 0 0 1-.74-1.39 5.11 5.11 0 0 0-.5-1.14 2.25 2.25 0 0 0-1.31-.95c-.48-.08-.87-.62-1.27-.93v-2.1c-.76-.3-.49-1.19-1-1.65-.51-.46-1-1-1.45-1.44-.45-.44-.22-1.34-1-1.64v-1.39a7.9 7.9 0 0 1-2.16-3.53l-2.16-2.17-.92-.24c-.18-.94-1-1.61-.94-2.7 0-.58-.53-1.13-.81-1.67-.39-.74-1.2-1.25-1.38-2.16a2.34 2.34 0 0 1-1.72-1.33v-.54l-2.66-2.66v-1.3c-.31-.47-.94-.75-.7-1.45l-4.7-4.69v-2.67c-.74-1-1.81-1.41-2.08-2.42s-1.36-1.37-1.74-2.18l-.83.21c-.06.09-.17.18-.17.27v5.78l1.31 2.49v1.83l-.6.71v2l.64.71v1.33l-.68.75v1.32l-.5.5a2.2 2.2 0 0 0-.16.61v2.29l.61.61v19.72l-.6.94c-.11.58.33.82.64 1.17v3.35l.7.77v4.06c-.86.43-.42 1.68-1.41 2l.62.61a4.59 4.59 0 0 1 0 2.27c-.16.17-.32.33-.53.53v4.79l.62.71v1.29l.7.76v2l-.66.72c.18.17.34.34.52.52.55 1.44-.58 2.36-1.18 3.89v1.67l.62.71v5.43l-.66.71v6.11l-.48.48a2 2 0 0 0-.19.6v5.75c.9.35.41 1.55 1.24 1.9a5.27 5.27 0 0 0 .75 2.42c.26.42.05 1.11.05 1.72l.66.75v2l.7.75v3.4l.71.76v1.32l.58.58v4.82l-.54.7v6.19c.22.23.38.39.58.58V324l-.63.71v5.18c-.74 1.39-1.39 2.6-2.06 3.87v1.83l-3.39 3.4c.008.25-.022.5-.09.74-.09.2-.31.33-.59.61v3.46c-1.15.6-2.32.87-3.17 1.75-.85.88-1.75 1.77-2.57 2.61-1.29 0-1.81 1-2.39 1.76-.58.76-1.78.86-2.42 1.66h-2.69l-.76.7h-1.32c-.27.24-.51.47-.71.64h-4.11c-.53-.91-1.36-.56-2-.66l-.59.59a.88.88 0 0 1-.3.1h-10.66l-.77-.65h-1.27l-.78-.7h-2l-.76-.7h-1.31l-.75-.67h-3.12c-.59-.16-1-.69-1.67-.86-.46-.12-.95-.38-1.47-.54-1.46-.44-2.95-1.06-3.5-2.6-.3-.84-1-1.17-1.42-1.81v-.66l-3.38-3.38c.44-.93-1.16-1.15-.72-2.08l-1.2-1.21a1 1 0 0 1-.14-.28c0-.44.07-1.17-.13-1.27-.86-.41-.12-1.72-1.2-1.8v-3.51l-.7-.77v-6.81l-1.34-1.25c-.1-1.59 0-3.27-.06-4.89l-.64-.65v-4.08l-.65-.65v-3.43l.61-.71v-1.33l-.65-.71v-2l-.6-.55v-2.76l-.68-.68V296l.57-.69c.13-.64-.26-.91-.69-1.33v-6.13l-.63-.63V277l.66-.7V275l1.28-1.26v-2.14c-.06-.09-.25-.34-.54-.71V262l.66-.66v-2.72l.63-.62v-3.4c-.15-.37-.77-.49-.67-1-.09-.57.53-.68.66-1.05v-2.71l-.5-.51c-.91-1.3 1.05-2.15.27-3.67l-1.78-1.66v-5.1l-.5-.5c-.34-.49-.13-1-.13-1.59l.56-.55v-5.86L268 228c-.58-.52-.43-1.58-1.22-2.07v-1.34c.27-.35.7-.55.7-1.1 0-.28.3-.56.5-.9 0-.07-.07-.31-.19-.37-1-.5-.89-1.75-1.69-2.39V209l-.61-.65c-.21-1 0-2.28-.1-3.5l-1.21-1.21c-.35-.64.23-1.62-.84-2.12v-4.16l-.62-.63V190l-.71-.77v-2l.66-.71v-1.36c-.17-.17-.4-.31-.48-.5-.32-.78-.07-1.72-.83-2.4-.22-.21 0-.87 0-1.33v-4.41l-1.36-2.46v-7.25l-.7-.76v-1.33l-.67-.71v-1.37l.51-.51a4.59 4.59 0 0 0 .08-2.27l-1.25-1.24v-1.35l.61-.84c.13-.74-.4-.91-.65-1.27v-1.34l-.7-.75v-4.73c-.18-.18-.47-.34-.48-.5 0-1.41-1.07-2.58-.9-4.08a35.64 35.64 0 0 0 0-4.25l.64-.64v-6c.76-.58.57-1.7 1.4-2.18v-3.4c-.78-.67-.87-1.7-1.38-2.52l.7-1.07c-.09-.85-1.14-1.43-.67-2.46l-.68-.77v-2c.74-.4.65-1.31 1.13-1.91.48-.6 0-1.78.9-2.34v-1.7l1.33-2.43v-3.21l-.64-.7v-1.34l.66-.71v-8.17c-1-.41-.27-1.84-1.32-2-.06-.55 0-.87.32-1.08.32-.21.36-.79.32-1.22-.04-.43.34-.79.67-1.14v-2.65c.78-.54.58-1.68 1.39-2.17-.36-1 .68-1.66.61-2.44-.09-1 .86-1.48.8-2.45-.06-.97.62-1.55 1.06-2.25.44-.7.14-1.08.28-1.67l1.33-1.4v-1a7.06 7.06 0 0 1 2-2.93v-2c.78-.56.44-1.78 1.4-2.08V66c.24-.26.47-.5.7-.76V64l.72-.82c-.4-1.15.47-2.08.57-3.11.1-1.03 1.21-1.68.77-2.71l3.25-3.24h.45l4-4.09h1.11a13.68 13.68 0 0 0 2.95-1.87 13.64 13.64 0 0 1 3.15-1.51h2.24c.48-.18.59-.8 1.16-.7.56-.1.68.52 1.27.74l3.15-1.59.88 1.51h1.83l.72-.67h2.71c.35-.83 1.48-.45 2-1.32h2.77l.65-.65h3.54l.57.58.73-.63h2l.73.67h2a6.5 6.5 0 0 0 3.38 1.38 5.94 5.94 0 0 0 2.49 1.75c.89.31 1.58 1.12 2.67 1 .66-.09 1 1 1.73.72.39.51 1.11.78 1 1.65 0 .27.49.38.83.32 2.29 1.66 2.06 2.33 4.14 5.37a5.11 5.11 0 0 1 .49 1.92c1 .5 1.14 1.77 2 2.6v1.94c.23.27.45.51.7.79v5.35l2.05 2.27c-.18.67.74.91.65 1.41-.21 1.17 1.14 1.94.7 3.15l.68.75v2c.24.26.47.5.69.75v1.74c.272.67.606 1.313 1 1.92a27.62 27.62 0 0 0 2.15 2.18c1 1 1.92 1.93 2.63 2.63.59 1.15 1.09 2 1.44 2.83a4.65 4.65 0 0 0 1.47 2.11c1 .76 1 2.24 2.18 2.79v2.07c.93 1.08 1.16 2.53 2.06 3.6v1.7c.092.19.203.371.33.54.47.5 1 1 1.44 1.45.08.08.23.17.23.24-.11 1.1 1.18 1.36 1.34 2.16.13.61.7.92.71 1.41 0 1 1.17 1.19 1.26 1.85.09.66.76 1.06.82 1.73.08.88 1 1.13 1.36 1.82v.68c0 .23 0 .58.07.63 1 .52.33 1.66.92 2.37a4.53 4.53 0 0 1 1 1.94c.18.9 1.26 1.13 1.34 1.82a2.73 2.73 0 0 0 1.31 1.84c.67.52.58 1.44 1.19 1.9.61.46.77 1.32 1.24 1.86s.36 1.21.87 1.73.39 1.24 1 1.59c.61.35.39 1.25 1 1.65.34.23.28.57.29 1 1.75 1.14 2.26 3.44 4.06 4.62v1.7l2.07 1.64v1.52c.35.35 1.1.76 1.22 1.3a4.06 4.06 0 0 0 1.27 1.87c.43.48.1 1.39.93 1.54v2.1c.25.39.6.33.91.33a7.2 7.2 0 0 1 2.47 3.37c-.33.88.48 1.4.71 2.09a5.82 5.82 0 0 0 1.67 2.71h.51l3.24 3.24v1c.28.75 1 1.16 1.51 1.73.51.57 1.12 1.13 1.66 1.67l1.84 3.88c1.15 1.15 2.43 2.44 3.72 3.72a8 8 0 0 0 1.92 3.29c1.09.93 1.27 2.61 2.94 3.34.55.09.86-.62 1.37-1v-10.3c.17-.18.31-.35.5-.56.43-.67.1-1.48.2-2.22l.65-.7V164l-.58-.58v-8.23c.08-.1.28-.35.55-.71v-6l.71-.85v-2L405 145v-1.33l.68-.73v-6.84l.6-.6c.23-1.54-.07-3.23.12-4.89.17-.16.33-.32.56-.56v-9.4l.77-1v-3.33l.63-.63v-7.5c-.17-.2-.39-.44-.63-.7 0-.09-.05-.22 0-.31l1.38-2.76V100l.58-.58V94c-.15-.25-.38-.61-.65-1l1.4-2.67V84.4l.47-.5c.07-.08.21-.16.21-.25v-4l.5-.51c.33-.63.11-1.32.19-2.11l.6-.8v-1.42l-.57-.57v-2.06l.61-.71v-1.28l.7-.77v-1.33l.7-.75V66l.26-.25c.08-.08.2-.15.24-.25.28-.79 0-1.77.85-2.37v-2.46l.64-.78V58c.27-.43.66-.78.68-1.15 0-.56.5-.71.72-1.17V54.4l.64-.62c0-.38 0-.92.08-1.41.23-.28.66-.62.61-.79-.35-1 .55-1.61.73-2.45.22-1 1.33-1 2-1.5.26-.21.49-.47.72-.69v-1.39l-.51-.5a4.79 4.79 0 0 1-.13-2.26c.44-.56 1.07-.14 1.86-.48l1.48-1.68-1.34-.94v-2.31l1-1h1.36c.42.22.63 1 1.59.45l.78-.81v-1.25l1.14-1.19c.92.49 1.93.6 2.62 1.39h3.41l.71-.66h1.35c.37-.41.74-.85 1.4-.72l1.26-1.26h7.61l.66.67h3.41l.61.62h2.69l.76.7H457l.76.7h3.16l2.4 1.34c1-.48 1.61.51 2.42.75.81.24 1.16 1 1.73 1.54.16.15.34.29.51.43h.66c.44.48.24 1.33 1 1.65-.08.94.55 1.37 1.28 1.7.19.09.5.06.59.19.58.88 1.63 1.06 2.37 1.68.363.286.683.623.95 1 .24.34.28.8.52 1.14.28.363.595.697.94 1 .52.85-.38 2.07.73 2.77a4.59 4.59 0 0 1 0 2.27l-.7.69zm269.15-19.38c-.36-.26-.61-.61-.41-1.45.54-.46 1.32-1.1 1.91-1.59v-2.27c-.35-.35-.74-.61-.61-1.26l.61-.74v-4l.7-.8v-2l.7-.75v-1.74l-1.4-.92v-3.54c-.6-.55-1.09-1.31-1.78-1.56a3.69 3.69 0 0 1-2.36-2.47 2.16 2.16 0 0 0-1.24-1c-1.36-.53-2.65-1.27-4.22-2.06h-2a14.46 14.46 0 0 0-2.55-1.26c-.87-.22-1.12-1.29-1.82-1.34-1.08-.08-1.31-1.16-2.15-1.42-.66 0-1.38.16-1.86-.73h-3.46l-.6-.6a4.84 4.84 0 0 0-2.27.15l-.49.5h-2l-.75.7h-4.73l-2.67 2.67h-.76l-.9 1a7 7 0 0 1-1.76 3.73h-2.77l-1 1.08v1.28l-.7.85v3.36c-.65 1.77-2.29 2.69-3.39 4.08v2a7.38 7.38 0 0 0-1.55 2.13c-.34.74-1.26 1.22-2.14 2l1.62 1.1v2.58l-1.49 1.95c-.82.15-1.44-.19-1.85.41V33l-2.11 4v1.73l-1.28 1.29v.64l-.7.76v3.38l-3.39 3.39v.65l-.7.76v1.27c-1.17 1.39-1.36 3.14-2 4.68-.12.29 0 .82-.17.93-.74.46-.34 1.57-1.19 1.92v3.38c-.95.93-1.16 2.27-1.87 3.34-.37.56-.2 1.49-.28 2.18l-.66.85v2.59l-.67.67v2.72l-.61.61v1l-1.4 1v3.6c-1.54.87-1.62 2.73-2.69 4v1.27l.66.72c-3.09 4.74-2.31 3.39-2.9 5.63l-.48.48v4.07l-.7.75V100l-.58.58v3.53l.54.69-.67.66v2.77c-1.51 1.09-1.63 2.89-2.72 4.17v2.6l-.64.64v4.08l-.73.73v2.72l-.63.63a8.05 8.05 0 0 0 0 1c.06.56-.7.78-.64 1.07.16.82-.92 1.08-.71 1.76.27.91-.72 1.32-.71 2.11 0 .43.09.86-.31 1.24-.2.19-.22.58-.37.85s-.48.7-.67 1v3.21c-.82.69-.59 1.71-1.35 2.1v1.34l.69.76c-.12.53.25 1.17-.31 1.58-.83.59.11 1.87-1 2.33 0 .55-.1 1.11-.1 1.66v4.08a3.53 3.53 0 0 1-.13.63l-1.22 1.21v.65l-1.4 1.48v2.71a1.29 1.29 0 0 0-.64 1.44c.15.68-.59.89-.76 1.72v3l-.58.58v1.31l-.7.77v3.36l-.7.76v2l-.71.78v2.62l-.59.72-.16 2.12c-1 .65-.44 1.64-.59 2.48 0 .18-.25.32-.39.48-.33 0-.68.07-.9-.3-.05-.53-.09-1.06-.13-1.47l-.6-.61v-2.7c-.78-.4-.57-1.39-1.18-1.91s.07-1.26-.47-1.85a10.78 10.78 0 0 1-1.16-2.08V168c-.47-.48-.87-.88-1.33-1.33.36-.68-.35-.92-.65-1.39v-1.74l-2.05-2a6.29 6.29 0 0 0-1.34-3v-2.71a1.54 1.54 0 0 1-.66-1.66l-1.45-1c.13-.93.16-1.6-.53-2 .21-.86-1-1.22-.76-2.07-.61-.39-.6-1.11-.92-1.66-.32-.55-.73-1.29-1.17-2.06v-3.19l-1.41-1.38v-2.76c-1.51-1.09-1.63-2.9-2.64-4.08 0-.72-.09-1.39-.13-2.06-.85-.53-.53-1.38-.59-2.13a6.62 6.62 0 0 0-.14-.7l-1.91-1.84v-.69l-2.61-2.61a2.66 2.66 0 0 0-.3-.95c-.32-.35-.6-.66-.47-1.19l.65-.71c-.81-.5-.68-1.58-1.4-2.21V117c-.89-.37-.38-1.58-1.25-1.91.07-1.07-.92-1.44-1.42-2.13.32-.88-1.06-1.18-.7-2.11.12-.29-.1-.59-.26-.9-.87-1.62-1.55-3.36-3.12-4.38v-1.06l-1.3-.92c0-.73-.05-1.17-.07-1.73-1.33-.28-1.12-1.78-2-2.48 0-1.48-1.61-1.76-2-2.9v-.33c-.68-.83-.91-1.92-1.75-2.7a8.57 8.57 0 0 1-1.22-2.52l-3.15-3.13v-3.84c-.58-1.13-1.06-2.07-1.54-3l-9.11-9.11c-.66.24-.88-.51-1.49-.74h-1.64l-2.45-1.32h-1.7l-.89.65c-.75.12-.89-.56-1.27-.62a10.65 10.65 0 0 1-3.44-1.56c-1-.56-2.12-.94-3.11-1.57-.99-.63-2.31-1-3.37-1.69a31.92 31.92 0 0 0-3.25-2h-3.75c-.09 0-.17-.11-.26-.17l-.5-.49h-.67l-.72.66h-2l-.78-.7h-2.67l-.58-.59H556l-.63.63h-4.77l-.66.67h-10.47a2.22 2.22 0 0 1-.61-.17l-.49-.49H537c-.39.48-1.17.73-1 1.63l.58.66c-.31.42-.62.86-.76 1.06l-1.58.09c-.73.73-1.41 1.35-2 2-.59.65-1.89.68-2.36 1.68v1.34l.65.71v2.37l-1.3.87c0 .77-.06 1.21-.09 1.72a3.5 3.5 0 0 0-1 .18 3.85 3.85 0 0 0-.75.67h-1.93l-1.05 1v4.09l-.7.76v1.75L521 90v4.51a2 2 0 0 0-.76 1.41c0 .34-.69.53-.62 1.09a1.87 1.87 0 0 1-.49 1.51c-.29.36-.1 1.08-.32 1.55s-.61.61-.56 1.14c.05.53 0 1.09 0 1.5l-.65.65v3.35l-.7.78v2l-.68.74v2l.64.71v2.17c-1 .41-.63 1.24-.55 2 .13.28.58.34.44.75l-.51.51v1.94c-.9 1.14-1.19 2.55-2.1 3.67v5.34l-.59.59v5.57c.29.29.54.52.77.77.23.25.4.5.5.63.12.73-.38.91-.65 1.27v5.41c-.23.26-.46.5-.7.76V149l-.7.79v4l-.63.64v6.13l-1.34 1.33a21.87 21.87 0 0 0 0 2.92l1.3 1.15v3.45l-.7.79v5.39c-.89.56-.68 1.34-.53 2.11l1.26 1.26c-.25.64.28.95.67 1.34-.84.48-.65 1.61-1.4 2.2v2.61l-.53.52c-.45.79.37 1.81-.47 2.53-.84.72.13 1.87-1 2.31v2.05c.75.5.57 1.59 1.23 2.07l-1.27 2.41v5.23c-.41.33-.73.65-.6 1.19.67.47 1.57.65 2 1.45v1.35l-.65.7v1.34l.61.71v2.17c-1 .47-.66 1.26-.5 2l1.21 1.21v1.36l-.66.71v2.7l.65.71v2.73l-.6.6c0 .67-.07 1.43-.09 2.08l-.58.72v5.49l1.28 1.29v1.35l-.67.73v2.68l-.65.71v1.34l.58.7-.54.69v12.34c.678.479.87 1.4.44 2.11l-.49.48.65.72v2.1c-1.11.61-1.33 1.9-1.95 2.75v4.36l3.27 3.28v1.16c-.45.46-1 .8-1.2 1.28a2.35 2.35 0 0 1-.79 1.37l.7.76V275c.25.28.47.52.7.79v2.6l.9.41c.73 1.29.38 1.83-.23 2.3v.81c.07 1 .79 1 .66 1.59.1.58-.52.69-.7 1.16v1.23l-.7.8v4l-.58.58v6.08c.71 1.09.93 2.27 2 2.76v3.46l-.66.71v8.48l1.37.94c-.15 1.19-1.35 1.9-.55 3l.5.49v1.37l-.66.71v1.6c1-.23 1.52.52 2 1.22.1.54-.12 1.07.31 1.6a4.84 4.84 0 0 1 1 1.94 2.73 2.73 0 0 0 1.2 1.54c.64.52.7 1.36 1.19 1.89a49.94 49.94 0 0 0 3.86 3.84 9.37 9.37 0 0 0 2.61 1.2c.19.08.33.29.52.45h2.73c.45.84 1.52.71 2.19 1.4h3.23l.58.59H541l.8.7h1.3l.75.7h2l.65.58 2.39-1.33h1.8l.58-.58h5.47l.71.63h1.3l.74.69h2.72l1.69-1.69v-1.37l1.72-1.68c.72-.13 1.52.17 2.3-.25l.4-.46h1.37c.35-.26.54-.73 1.1-.68.56.05.75-.75 1.42-.71.35 0 .69-.5 1.09-.62.4-.12 1.12.21 1.48-.39v-1.33l-.62-.71V326l2.68-2.68v-.74l2.35-1.07 3.8-3.79v-2.56l.7-.82v-6.74l.65-.65v-2.63l.67-.89v-1.82c.21-.48.93-.71.67-1.43l-.67-.72v-4.07c.27-.35.78-.54.65-1.26l-.6-.85v-10.87c.2-.21.36-.37.53-.53a4.63 4.63 0 0 0 0-2.28l-.52-.52v-3.41l.65-.73c0-.4.19-1.07 0-1.26-.71-.61-.57-1.67-1.36-2.21v-7.36a3.58 3.58 0 0 1-.63-.86c-.12-.42 0-.93-.15-1.3s-.53-.62-.59-1.13c-.06-.51-.45-.7-.64-1v-12c0-.09-.11-.18-.52-.81l-.77-1.38.59-.65v-2.74c-.87-.55-.69-1.33-.56-2.1l1.27-1.27v-5a2.26 2.26 0 0 0-.17-.6c-.16-.16-.33-.32-.48-.48-.09-1 .06-2 0-2.75l-.65-.69v-3.4c.78-.67.88-1.69 1.35-2.51l-.76-1.19V207.5l-.55-.56a4.67 4.67 0 0 1 .11-2.26l.5-.5c-.22-.24-.44-.49-.68-.74v-2.67l-.63-.71V196l1.35-1.35v-6.1a.78.78 0 0 1 .85-.32l1.84 1.65v.74l2.7 2.7c-.24.63.28 1 .67 1.35v2.72c.8.37.52 1.41 1.18 1.91.2.15.18.59.25.85.66.8 1.49 1.4 2 2.05v1.89l2.49 2.49h.58l1.67 1.75V210c.74 1.38 1.38 2.6 2.11 4v1.81a11 11 0 0 1 1.77 2.36 25.26 25.26 0 0 0 2.6 2.68c.128.169.245.346.35.53v1.91c1.08.13.36 1.57 1.35 2v2.06l2.58 2.5c1 2.39 1 2.39 4.09 5.52.237.82.573 1.61 1 2.35.48.61.5 1.4 1.13 1.95a9.76 9.76 0 0 1 1.43 2.22v2.55c.83.64.68 2 2 2.36h1.09c.11.42.282.821.51 1.19.34.36.27.9.5 1.15a12.15 12.15 0 0 1 1.29 2.54 8.29 8.29 0 0 0 1.35 2.14c.77.7.65 1.88 1.63 2.44.38.22.42 1 .77 1.35.35.35.22 1.05.35 1.56.168.365.39.702.66 1v4.21a3.9 3.9 0 0 0 .2.79l1.86 1.7v1.77l2.39 2.69h1.33l1 1v2.29l1.4 1.07c-.34 1.34.83 2.15.67 3.31-.06.47.83.74.64 1.42.69.73 1.37 1.47 2 2.19.26.73-.52.93-.63 1.28v6c.61 1.35 2.13 1.11 2.67 2.24v3.43c1 .51 1.15 1.8 1.93 2.53.78.73 1 2.28 2.14 2.81.1.69-.21 1.43.49 1.9a10.25 10.25 0 0 0 3.12 4.5 37.39 37.39 0 0 1 2.88 2.89 8.59 8.59 0 0 0 3.54 2.15l4.6 4.6h6.62l2.43 1.41h6.63l.71.63h7.48c2-1.32 2-1.32 2.67-2.66h1.28c.51-.28.76-1 1.46-.71l2.63-2.63c1.06 0 1.5-.89 2.16-1.45h.64l2.43-2.39v-2.3l1.3-1v-3.58l-.51-.52c-.65-1.3 1-2.19.45-3.75l2.89-2.36v-6.43c.72-.6.79-1.45 1.18-2.11l-.55-.55v-3.39l.69-.75v-1.32c.4-.4.93-.73.64-1.34l-.65-.78c.091-.81.091-1.63 0-2.44-.22-1 1.11-1.46.72-2.45a6.63 6.63 0 0 0 .81-2.64l.55-.55v-2.7l.68-.73v-1l1.37-1v-4.22l.66-.66v-2.85a1 1 0 0 0 .64-1.15c.45-.48.91-1 1.39-1.46v-2.83c1.39-.28 0-2 1.22-2.44l.2-2.18.6-.79v-2.09l2.06-1.64v-3.13c1.38-.21.36-1.46.93-2.23 1-1.31.09-3 .54-4.53l.6-.6v-4.08l.68-.57v-8.8c.8-.52.59-1.66 1.4-2.17v-2.68l.62-.62v-3.41l.6-.6c.16-2.17.16-2.17 1.57-4.35V202l.59-.55V196l.7-.77v-5.4l.63-.62v-3.41l.72-.72v-6.8l.72-.73v-3.4l.57-.56c.23-1-.15-2 .17-3l.58-.51v-6.81l.65-.71v-2.05l-.58-.58V157l2.66-2.59v-3.39l.67-.75a2.55 2.55 0 0 1 .73-2.18v-3.31a1.12 1.12 0 0 0 .61-1.21l-.66-.78v-7a2.26 2.26 0 0 1 .17-.6l.49-.49v-3.38c.24-.25.46-.5.7-.76v-2l.7-.78v-4l.63-.63V119c1.57-1 1.72-2.79 2.76-4.09v-8.07l.7-.78v-4.11c1.07-.52 1.15-1.81 2.07-2.69v-2.7c.29-.28.45-.44.61-.61v-2.71l.7-.75v-2.84c1.39-.2.37-1.46.93-2.22 1-1.33.12-3 .53-4.53.84-.35.34-1.55 1.2-1.89.15-1.66-.05-3.34.09-4.85l.64-.64v-2.7l.67-.72v-2l-.5-.5c-.06-.09-.16-.18-.16-.27v-2.62c.16-.15.23-.24.32-.31.76-.59-.07-1.84 1-2.35.11-.05.08-.41.09-.62v-1.41l.66-.76v-2l.7-.75v-2l.71-.76v-1.81c.5-.91.92-1.65 1.28-2.29v-8.16l-.58-.58V41.5c.22-.33.83-.62.6-1.35l-.64-.69v-2c.92-1.15 2.18-2.05 2.45-3.67zm228.36 266.6v1.86l-.84.91-1.56.19c-.4.22-.23.6-.3 1-1.46 1.07-2.44 2.73-4.15 3.74a30.39 30.39 0 0 1-4.93 2.66h-1.69l-1.16 1.53-3.4-1.75-1.8 2.27c-.64 0-1 0-1.23.34v3.44l-1 .87c-1.14-.2-2 1.08-3.35.79l-.73-.66h-4l-.76-.7h-1.33l-.49-.5c-1.28-.84-2.19.84-3.25.54l-2 2h-4.5l-.3-.33c-.23-.2-.32-.33-.4-.33h-7.56c-.43-1.15-1.78-1.13-2.52-2-.74-.87-2.21-1-3-1.74s-2-.94-2.67-1.87c-.67-.93-2.18-.67-2.46-1.93h-.77c-.83-.82-1.64-1.6-2.45-2.38v-.78c-1.12-.62-1.52-2.23-3.09-2.33l-2.9-2.89c.12-.93-1-1.37-.86-2.39.09-.8-1-1.45-.62-2.44-.83-1-1.1-2.29-2-3.5v-5.37c-.52-.52-1.06-.86-1.28-1.34-.22-.48-.25-1.06-.79-1.38v-2.75l-3.32-3.18c-.14-.94-.29-1.73.56-2.26v-2.06l-.66-.7c.16-.15.32-.31.5-.5a4.78 4.78 0 0 0 .14-2.26L893.6 271v-2.87l-2.78-2.28v-2.18c-.66-.91-.76-2.27-2-2.77v-3.48l-.71-.78v-1.84l-1.42-2.56c.35-.78.93-1.37.64-2.6l-1.24-.79v-2.33l-.7-.78v-1.31l-.7-.76v-1.15L882.3 240l-.63.63h-9.53l-.66.66h-4.66l-.83.68-.71-.6H864l-.74-.7h-4.75l-.48-.48a2 2 0 0 0-.6-.19h-5.73l-.6.6h-7l-.6-.6h-6.81l-.64-.64h-2.86l-.79 1c-1.06.72-.76 1.54-1.4 2-.42.32.2 1.31-.52 1.8-.47.32-.21 1-.68 1.43-.47.43-.43 1.19-.94 1.63V249l-.61.82v5.25l-.7.87v1.91c-.24.27-.45.52-.7.82v2.64l-.7.77v1.32l-.71.76v1.3l-.7.79v2.66c-.27.27-.51.52-.76.75a1.53 1.53 0 0 0-.6 1.13c0 .27-.37.52-.62.83v2c-.24.26-.47.5-.7.76v2l-.6.58v2.74l-1.4 1.4c0 .36 0 .79-.06 1.26-.72.65-1.47 1.33-1.84 1.68-.44 1.21.21 1.48.47 1.9v2l-.66.75v3.11c-1.55 2.68-1.55 2.68-3.4 3.64v2.7l-.71.76v4.15c-1.59.8-1.54 2.75-2.67 3.93.36.9-1.09 1.17-.72 2.08l-1.35 1.35v1l-2 2v1.1c-.473.21-.934.448-1.38.71-.54.35-.78 1-1.64 1-.43 0-.73.85-1.4.61l-1.71 1.71v3.7l-1.7.08c-1.09-1.24-1.75-3-3.5-4h-2.55a8.53 8.53 0 0 0-2 1.25c-.57.6-.68 1.6-1.48 2.08h-1.37c-.3-.75-1.17-.51-1.64-1l-1-1c-.79-.16-1 .26-1.35.57-.35.31-.64.64-1 1v2.87l-1.19.94h-1.8l-.89-.66h-2.02l-.64-.64H774l-.58.58h-2c-.2-.17-.45-.4-.71-.64H769l-1.66-2h-1.5c-.21.22-.37.38-.58.58h-8.88l-.71-.6h-1.27l-.77-.7h-2.7l-5-5.09c.29-.85-1.06-1.14-.76-2l-1.06-.94a5.55 5.55 0 0 1-.3-2.58v-2l.61-.61V305c-.09-.1-.29-.36-.54-.68v-5.53l.58-.58v-7.37c.26-.42.65-.77.67-1.15 0-.57.56-.67.73-1.31v-1.78l.7-.77v-1.31l.44-.52c.05-.1.15-.2.13-.28-.3-1.16.54-2.09.64-3.13.1-1.04.86-1.49.92-2.36 1-.61 1.12-1.84 1.89-2.67v-2l1.28-1.28c0-.71.07-1.48.1-2.14l.6-.6v-2c.84-.51.44-1.76 1.4-2.05v-2.14l.51-.51c.23-.42-.29-.45-.46-.93v-5.14l3.3-6.58v-3.8l1.33-1.33v-2.88l-.58-.57.65-.73v-2c.79-.63.71-1.85 1.68-2.38.97-.53 1.09-1.59 1.71-2.52v-2.48l.7-.75V228c.83-.36.46-1.47 1.28-1.92v-2.34l2.11-2.09v-3.86l2-1.86v-6.1c.23-.29.43-.54.7-.9v-2.44c.48-.85.9-1.59 1.4-2.49v-2.49l.71-.76v-2l.7-.77v-3.35c.18-.19.34-.35.63-.63v-3.4l1.35-1.36v-3.34l.7-.78v-2l.7-.76v-1.34l1.35-1.35a10.12 10.12 0 0 1 0-2.51 17.23 17.23 0 0 0 .7-2.1 7.73 7.73 0 0 1 1.29-2.36v-1.18l-.66-.71a1.09 1.09 0 0 1 .61-1.24v-2.85c1-.51.59-1.44.83-2.12l.54-.54v-4c.75-.74.78-1.87 1.75-2.53l1.33-.05.88-.81a4.65 4.65 0 0 0 .11-2.31l-1.25-1.25v-2.06l.61-.71v-2.64c.82-.51.66-1.58 1.35-2.2.3-.28-.09-.83-.56-1.16v-3.61c.91-.45.42-1.4.7-2.06l.53-.53v-4c.75-.59.56-1.71 1.4-2.19v-1.35l.71-.75v-1.3l.7-.8v-3.31a2.41 2.41 0 0 0 .64-1.85l-.71-1.06c.53-.83.63-1.86 1.39-2.52v-2l.48-.48c.07-.09.19-.18.19-.26v-3.34l2-2c.13-.73-.14-1.6.74-2.08l-.66-.73v-2c.83-.35.66-1.32 1.14-1.93.48-.61.34-1.58.82-2.38.36-.57.07-1.54.07-2.65l2.65-2.16c.15-1 0-1.36-.53-1.59v-2.79c.62-.86.84-2.14 2-2.76v-2.07c.24-.26.46-.51.7-.76v-1.32l.7-.77v-4l.58-.58v-2.45c.43-.78.79-1.41 1.14-2.05h.68l1-1V73.5l1.25-1.18a12.31 12.31 0 0 0 .12-2.65c.6-1 1-2.19 2-2.89V64c1.51-.85 1.52-2.75 2.62-3.94 0-1 .86-1.49 1.47-2.15V56.6c.24-.26.46-.51.7-.76v-1.35l1.17-1.15c.46-.68-.21-1.69.81-2.16v-2.89l1.37-.94c0-.53 0-.75.06-.95.21-.54.75-.34 1.12-.52.53-.71 0-1.54.3-2.2l-.72-.78v-1.37c.1-.1.18-.25.26-.25h3.34c.54-.84 1.77-.48 2.09-1.46l.77.69h1.38c.55-.49.19-1.09.33-1.73l1.06-.9 1.51-.17c.33-1 0-2 .23-3.21l-1.4-.94c-.18-1.05.49-1.25.73-1.66.15-.09.26-.22.33-.2 1.17.37 2-1 3.38-.62l.94-1.24c0-.14.06-.44-.06-.57-.68-.73-1.41-1.42-2-2 0-1 .66-1.31 1.18-1.68.54-.12.81.27 1.16.63h2c.83-.77 2.21-.86 2.74-2 1-.22 1.51 1.23 2.55.66.678.285 1.325.64 1.93 1.06.7.6 1.89-.16 2.34 1h5.43c.09 0 .17-.13.33-.25v-1.73c.48-1.39 1.8-1.37 2.6-2.06a1.27 1.27 0 0 1 1.26.09c.44.4 1 .44 1.42.71.457.35.872.748 1.24 1.19h3.37l.74.69h3.4l.61-.61 1.47-.11c.33-.29.56-.74 1.2-.61.64.13 1 1.45 2.06 1.36.32 0 .31.53.47.74.72 1 .65 2.67 2.41 2.7.4.5.27 1.31 1 1.64a1.51 1.51 0 0 0 1.28 1.67c.77.17 1 .83 1.57 1.17.57.34 1.27.32 1.64 1 .37.68.94.49 1.38.76a7.47 7.47 0 0 1 1.46 1.41c.08.108.148.226.2.35v1.21c.51.53 1.11.17 1.63.29 1 .47.92 1.73 1.7 2.35a1.43 1.43 0 0 0 1 1.59c.91.27 1.62 1.27 2.77.81l2.4 2.55v.48c.24.26.46.51.7.76v1.34c.43.374.827.782 1.19 1.22.3.43.15 1.11.86 1.42V54c1.3.23 1.94 1.16 2.72 2v1.33l.59.59.14 1.5c.39 1 1.44 1 2.15 1.41.71.41 1.41.56 1.86 1.26v.72a16.06 16.06 0 0 1 1.89 1.89c.42.58.48 1.4.87 2 .475.622 1 1.204 1.57 1.74 1.23-.14 1.22 1.07 1.58 1.68.47.79.84 1.69 1.3 2.51.3.55.25 1.32.93 1.66.68.34.63 1.1 1 1.64.78 1.27 1.14 2.81 2.41 3.77 0 .89.88 1.42.82 2.41a3.1 3.1 0 0 0 .89 2c.56.6.28 1.26.45 1.88.81.52 1.13 1.75 2.37 1.67.38.51 1.12.77 1 1.64 0 .22.41.49.65.75V94c1.22.83 1.44 2.46 2.66 3.31.14 1 0 2 .06 2.79l-.67.67v2c.43.73 1.25.09 1.83.5.43.45.07 1.05.08 1.1l2.11 4.07v1.69l.7.83v2.59c.92 1.11 1.18 2.54 2.1 3.65v1.95c.91.92 1.8 1.8 2.69 2.69v2l.67.73v4.76c-.78.67-.89 1.69-1.42 2.63l2.11 2.11c-.15 1.1 1 1.37 1.31 2 .31.63-.52 1-.61 1.55a6.81 6.81 0 0 0 0 1.19l.63.64v3.29c.79.58.45 1.79 1.41 2.09v1.48l-.49.47a4.77 4.77 0 0 0-.16 2.28c.65.64 1.29 1.29 1.93 1.93.12.77.27 1.56-.58 2.09v2.71c.76.5.64 1.55 1.31 2.18.3.29-.1.83-.52 1.12.193.555.423 1.096.69 1.62.38.64 1.16.93 1.29 1.87.08.55.85 1 1.32 1.5v2.64l.66.76v3.22l.62.8v3.85a2.69 2.69 0 0 1 .73 2.22l-.67.76c0 .16-.09.52 0 .59.82.51.44 1.74 1.35 2v1.84l1.31 2.5V189l.7.84v1.94c.23.27.45.51.68.76l-.64.71v1.36l2.68 2.68v3.42l-.64.71v1.33l.68.74v.73l1.18.41c.53.52-.12 1.28.45 1.87a4.73 4.73 0 0 1 1 1.93c.17.62-.07 1.36.69 1.78v2l.7.77v2.68l.7.76v2l.7.78v4c.2.2.51.37.49.52-.09 1.23 1.08 2.15.81 3.6l1.39 1.06v3.61c.23.38.72.53.71 1.1 0 .28.27.56.61 1.18v2.47l.66.66v1.74c.73 1.39 1.38 2.6 2.11 4v1.82l.7.75v1.34c.88.48.58 1.36.74 2.09.91.46.25 1.6.76 2 .51.4.3 1.6 1.18 1.94v2.7l.7.75V258l.6.6v2.73l.68.68v1.84l.76 1.12c.1.54-.28.82-.64 1.13v2.76c.39.77 1.24 1 2 1.4v.68l1.28 1.28V276c.48.89.89 1.63 1.4 2.58V281c.27.42.5.77.72 1.14.54.91.71 2.09 1.67 2.69.96.6.88 1.76 1.67 2.39 0 .89.78 1.45.83 2.41.05.96.77 1.69 1.28 2.7v5.58c.41.74.8 1.49 1.33 2.48zM872.4 196.71l-.68-.78v-2l-.64-.64v-1.74c-.78-1.5-1.36-2.63-2-3.93v-1.81c-.82-.36-.66-1.31-1.15-1.92-.49-.61-.07-1.73-.89-2.33v-1.88l-.72-.71v-4.09l-1.32-1.32v-3.38l-.69-.74v-1.09c-.74-1.43-1.38-2.64-2.11-4v-3.12c-1.45-1-1.62-2.83-2.67-4.09v-7.71l-1.41-1c.35-1.4-1-2.2-.61-3.37-.9-1.06-1.13-2.51-2.06-3.59v-3.39a5.86 5.86 0 0 1-2.18-4.17c-.44-.31-.63-1-1.34-.87-.85.27-.47 1.41-1.25 1.75v2l-.69.78v4.72c-1.24.87-1.46 2.5-2.67 3.32-.09 1 .07 2-.06 2.79l-.65.68v8.13l-.7.76V160c-1.06.69-1.38 1.89-2.1 3v5.86l-.58.58v1.31c-.23.26-.46.5-.7.76v2.53c-.18.56-.69.68-.72 1.24 0 .37-.41.72-.68 1.14v1.88l-.57.71c.25.32.45.58.61.77v1.85l-.65.77v1.34l.64.71v1.33l-.68.73v4c-.23.44-.79.6-.64 1.35l.6.84v4.07c-.81.44-.61 1.17-.63 1.67l2.46 2.45c.46-.39 1.46-.3 1.94-1.1l.72.66H849c.26-.25.51-.47.71-.65h2l.58.58h13.76l.6-.6h2l.72-.72h2.8a4.67 4.67 0 0 0 .23-2.35zM236.86 323.52a1.18 1.18 0 0 1-.23.35c-.74.6-1.51 1.19-2.26 1.78v1a.84.84 0 0 1-1.1.11 1.31 1.31 0 0 0-1.13-.36c-.83.5 0 1.27-.45 1.86a6.42 6.42 0 0 1-2.14.16l-.7.5h-1.64a13.16 13.16 0 0 0-2.34 1.1c-.69.53-.84 1.28-1.46 1.82v1.27a6.15 6.15 0 0 1 1.27 2l-.86 1c-1.07-.14-1.64-.87-2.59-.55-.87-.56-2.08-.74-2.68-1.52h-1.84a5.92 5.92 0 0 0-1.73 1.56 3.23 3.23 0 0 0-.69 1.8l-.71.56c-.67.33-1.43 0-2.17.2-.55-1-2.24-.94-2.85-1.93v-1.27c.36-.77 1.56-1.06 1.94-1.87a.7.7 0 0 0 0-.25c-.23-.57-1.29-.12-1.49-.74-.61 0-.74.89-1.46.38l-.92 1.64c.14.46 1 .7.52 1.29-.8.61-1.07-.23-1.47-.33h-1.28l-1 .72v1l-.58.46c0 .22-.05.54-.09 1a9.88 9.88 0 0 1-1.73 1.4l-2.85-1.14c-.77.41-1.52.75-1.24 1.55H194l-1.12 1a25 25 0 0 1-2.74 0l-.69-.47c-.87-.1-1.81.28-2.43-.44l-2.19-.13-.87-.95h-4.09l-.72-.53h-1.28l-.58-.46h-1.05a3.83 3.83 0 0 1-2.41.45l-.75-.92h-4.3a15.85 15.85 0 0 0-1-1.88 3.66 3.66 0 0 0-1.13-.9 11 11 0 0 0-1.32-.54v-1l1.14-.9c.15-.12 0-.2-.14-.37a2.86 2.86 0 0 1-.36-.64 4 4 0 0 0-.35-.38c-1-.12-1.26.81-2 1-.74.19-1-.51-1.45-.8v-1c.72-.55 1.7.06 2.42-.37.05-.67.05-.67-.88-1.4h-1.25l-.94-.74v-1.49c-.6-.59-1.41-.18-2.32-.33l-1.43-1.48h-1.17a5.17 5.17 0 0 1-1.63-2c-.13-.55 1.07-.68.66-1.31l3.21-2.52V317l-.63-.53v-4.56l1.15-.91c-.34-.54-.48-1.17-1.14-1.6l.62-.54v-2l-.64-.55v-.25c.35-.57.72-1.13 1.23-1.92v-2.74l.66-.65v-1.5l-.58-.53v-1l-1.33-1.09v-1.5l-.55-.43v-1.81l-1.37-2c.43-.85-1-1.22-.6-2.07l-2.38-.08a9.46 9.46 0 0 0-.25-.47c-.08-.14 0-.21 0-.25a5.52 5.52 0 0 0 1.95-2.46l-.61-.58.57-.53v-1.46l.44-.38c.08-.15.21-.29.21-.44v-1.77l-.46-.36c-.36-.47-.12-1-.19-1.46a5.49 5.49 0 0 0-1.86-2.16v-2.12l.55-.43v-1.07l-1-.68c-.44-.7-.22-1.29-.26-1.87-.04-.58 0-1 0-1.47l-.58-.45v-1.28l-2-3v-2.85l-1.31-1.08c0-.28-.13-.62 0-.77.95-1 1.07-2.2 1.88-3.44v-1.23c.24-.4.92-.58.67-1.11l-.65-.55v-1l-.66-.57v-3l-.55-.43v-1.63l.53-.42v-4c-.63-.39-.36-1.26-1.24-1.52v-2.59l-.64-.55v-1.52l.46-.36a1.6 1.6 0 0 0 .17-.46v-2l-1.24-1.85v-2.17l-3.2-2.51h-1.68l-.68.5h-3.15l-.6.48a26.18 26.18 0 0 1-2.66 0l-.51-.41-2.27.94c-.52.07-.72-.29-1-.5h-1.28l-.69.51h-2.56l-.47.36a2.35 2.35 0 0 1-.57.13h-3.44c-.29-.19-.51-.34-.73-.47l-.55.43h-3.77a3 3 0 0 1-2.09.54l-.7-.49h-2.56l-.69.5h-5.15l-.58.46-1.17.07-.94-.53a1.25 1.25 0 0 0-1.11.47h-1.86l-.79.52H94l-.65-.47-.7.5h-5.77l-1.61 1.26v2.53l-.64.54c0 .5.07 1-.46 1.42a3.36 3.36 0 0 0-.8 1.24c-.19.44.11 1-.72 1.37v3.6l-.59.46v2c-.7.62-1.12 1.36-1.74 2a7.21 7.21 0 0 0-1.47 2.48v5.26l-1.42.79c.33.71-.31.9-.58 1.27v5.52c-1 .67-.91 1.81-1.88 2.57v2.48l.6.52v1l-.64.54v5.57l-1.14.9c-.43.7 0 1.24.55 1.83l-1.33 2V281l.63.54v1L73 283v2l-1.95 1.54a.94.94 0 0 1-.68 1v1l-.65.54v3l1.22 1v2.57l-.54.53v1l-1.38.82c.26.66-.29.88-.61 1.22v3l-.58.46v2l-1 .83h-.66c-.65.26.08 1.15-.94 1.11v4.17l-.67.57v.81c-.19.29-.41.65-.65 1-.24.35-.43.54-.64.8v1.36l.64.67v1.82c0 .14-.18.29-.33.4-.65.47.12 1.39-.93 1.73v2.57l.62.52-.95.73h-3.86c-.6-.23-.85-.88-1.66-1-.81-.12-1.17-.57-2-.55-.63 0-1.19-.61-2.36-.38l-1.34 1.59c.52.75-1 1.52-.74 2.53-.51.76-1 1.52-1.6 2.35H39l-.84 1h-1.61l-.67-.48h-1.27l-.68.49h-1.25c-.28-.18-.58-.51-.75-.47-1.19.25-2-.94-3.25-.45l-.5.39h-2.6l-.68-.46H23l-.67.49h-5.17l-.92-.75v-1l-.93-.77H11.9l-.55.43H7c-1.3-1-2.59-2-3.77-3a1.92 1.92 0 0 1-1.84-.87v-2.6l1.2-.62v-1.26a2.38 2.38 0 0 0-1.71-.88c-.07-.06-.19-.12-.19-.19v-2.32l1.81-2.77-.5-.47v-1l-.64-.55c-.21-.5.26-.76.62-1v-1.33l2-3v-2.28l.59-.46v-3l.66-.56c-.2-1.31 1.22-2.14 1.55-3.24l1-.16v-2.05l.67-.64v-1.08l-1.25-.65v-2.84l.45-.35c.09-.136.15-.29.18-.45v-2.25c-.82-.41-.68-1-.57-1.58l.46-.36a2.47 2.47 0 0 0 .11-.47l.12-2.24c1-.42.07-1.53 1.14-1.92 0-.56-.12-1.19.68-1.55-.13-.73.92-.92 1.09-1.41.25-.69 1.19-1.2.8-2.12l-.57-.53v-1.6l1.26-.69v-1.77l-.61-.48a12 12 0 0 1 0-2.08l2.53-2-.63-.54c-.24-.53.42-.71.62-1v-1.53l-.55-.43v-1.36l.57-.71c.22-.52-.67-.62-.64-1.15l2-3v-3.84l.55-.43v-2.78l2.66-4.1v-2.33c1.11-.37.17-1.5 1.15-1.91 0-.75.81-1.11 1.4-1.61v-1c-.18-.35-.66-.25-1-.31-.5-.38-.16-.83-.27-1.22l.66-.56v-1l.63-.56v-5.36l1.25-1.83v-1.14l.91-1.42.83-.17c.08-.15.23-.29.23-.44v-7.37l.56-.41v-3.07l.65-.51v-2.31l1.33-2v-2.76c.75-.41.44-1.32 1.33-1.55v-4.13l.66-.56v-1l.67-.59v-3l.55-.44v-2.32c.49-1.1 2.1-.93 2.64-1.79v-3l-.61-.48a13.16 13.16 0 0 1 0-2.09c.84-.36.35-1.14.75-1.52.378-.35.57-.857.52-1.37v-1.65l.68-.54v-3.55l.59-.46v-1.5l.67-.56v-5.07l.46-.36c.3-1.78 1.76-3.14 2.75-4.95v-.74l.65-.55v-1.52l-.58-.46-.09-.93.65-.7v-1.95l.68-.54V150l.61-.47v-2c.72-.42.54-1.26 1.33-1.63v-4a4.36 4.36 0 0 0 .62-.58c.1-.13 0-.32.07-.49l1.85-1.46v-3l.67-.58v-4c.77-.37.65-1.17 1.27-1.64.21-.16 0-.64 0-.93l1.31-1v-4.56l.6-.48v-1.88l1.91-3v-1.77l.67-.63c.13-.47-.22-.68-.57-.94v-2.06l.6-.55c0-.26-.18-.74 0-.9.62-.47.5-1.26 1.27-1.64v-2.49c.23-.22.65-.45.6-.59-.3-.89 1-1.47.68-2.33a9.17 9.17 0 0 0 1.25-1.88c.23-.63 1-.83 1.3-1.33l-.45-.36c-.45-.69 0-1.24.48-1.77-.33-.82.52-1.38.86-2 .34-.62 1.19-.94 1.75-1.35V93.1c.83-.26.37-1.15 1.21-1.43v-4c1.09-1 1.15-2.5 2.66-3.17v-4.69c1-.38 1.12-1.32 1.88-2v-1.4c.72-.44.54-1.28 1.33-1.64v-1l.58-.45v-2.08a7 7 0 0 0 2.85-3.21c.94-.37 0-1.27.87-1.77.48-.29.65-.95.85-1.47A5.14 5.14 0 0 1 73 62.11v-1l-.63-.54v-1c.45-.21.62-.74 1.23-.73a1.12 1.12 0 0 0 1-.53 28.28 28.28 0 0 0 1.63-2.51c.16-.29-.11-.63.2-.95.67-.69.93-1.58 1.73-2.49v-2.55c1-.27 2 0 3-.17.25-.29.83-.44.93-.93 0-.66-.93-.85-1.3-1.34.26-.49-.42-.67-.58-1 .43-.41 1-.07 1.46-.24l.75.55h1.26l.7.5h.63c.38-.61 1.35-.36 1.85-.87a1.53 1.53 0 0 1 1.47 0 5.28 5.28 0 0 0 2.43.87c.88 0 1.39.64 2.32.59a3.44 3.44 0 0 1 1.85.7c.6.42 1.17.23 1.77.2l.57-.46h3.29a8.19 8.19 0 0 1 .91-1.58c.52-.55.4-1.3.81-1.75.41-.45.28-1.19 1.07-1.45-.07-.47.24-.8.69-1 .76-.39.68-1.15 1.25-1.64.22-.19-.05-.7.14-.95 1-1.35 1.84-2.79 2.75-4.18.13-.3.28-.59.45-.87.46-.52 1.18-.87 1.38-1.59.12-.44.86-.65 1.15-1.14a45.58 45.58 0 0 1 3.12-4.83c.19-.25 0-.67.11-1a3 3 0 0 1 .65-.74c-.14-.71-1-.91-1.32-1.42.1-.39-.23-.85.3-1.19l1.33 1 1.93-1.51 1.58-2.48c-.53-.81-.77-1.81-1.9-2.28v-1.09l4.3-1.68a2.43 2.43 0 0 0 1.63.43l2.59-2.2.26.26 3.4-1.31c.46-.35 1.06-.83 1.68-1.32H132l.69.51h1a7.35 7.35 0 0 1 1.81.76c.57.42 1.41 0 1.74.35.56.63 1.52.14 2 .54s1.15.35 1.8.38l1.34 1h1.27c.58-.2.05-.88.74-1 1-.12 1.2.88 1.78 1 .494.09 1-.08 1.34-.45h1.29l.67.49h7.72l.71.52h1.26c.55.43 1.11.83 1.61 1.28.5.45 1.35.07 1.48.72h5.2a3.24 3.24 0 0 1 1.43 1.54h.57l1.64 1.29c.05.21-.15.5.42.69h2.29c.55.17.77.72 1.5.51l1.6 1.39 1.06.22c.31.4.29.95.88 1.23-.18.64.68.8.91 1.23.23.43.93 1.05 1 1.7.05.33 0 .65.38.89s.08 1.06.92 1.15v2.6l.63.53c.4.65-.84.78-.62 1.34.22.56-.35.9-.65 1.31 0 .65 1.11 1.07.53 2 .66.46 1.36 1 2.09 1.46.73.46.67 1.39 1.6 1.77.93.38.94 1.24 1.59 1.87v.9l.6.47c0 .45.06 1 .09 1.57l.61.56c-.19 1.06-1.6 1.75-1.23 3a4.94 4.94 0 0 1 1.66 1.88c.17.386.272.799.3 1.22l1.21.95v2l.6.48v5l.67.58v2.5l.65.55v11.17l-.47.37c-.32.37-.13.78-.12 1.19l.53.41v1.83l1.33 1.91v3.86l.66.58V86l-.61.53.65.57v1l1.22 1v7a1.73 1.73 0 0 1 .69 1.64l-.63.55v3.54l.64.55v3.53l.5.39c.37.7-.05 1.45.18 2.11l-.62.48V112l.6.48V116l.59.47v8.08l.67.58v1l.66.57v6.56l.62.54c.13.5-.35 1.11.6 1.34v6.23l-.6.6v1.47l-.6.47v3.05l.61.53v4l.67.57v1l.6.53v3.56l-.56.44.5.51c0 .93 0 .93-.53 1.55v1.48l-.66.58v1c.73.29.46 1.08 1.1 1.38.07.1.17.16.17.23v3.3l1.25 1.83v1.81l.66.61v1.46l.67.57v1l-.63.53v3l.55.44v1.41l.72.74v1.46l.69.54v3.55l.59.47v3l.66.56v3.55l1.12.86c.43.5-.2 1.25.77 1.61v1.91c.5.385.765 1.002.7 1.63-.67.43-1.76.48-1.94 1.37.1.54.77.74 1.14 1.13.37.39 0 .89.8 1v4.2l.61.48v1.47l.66.59v9.12l-.62.53v1.5c.22.2.51.36.62.58.11.22-.05.5.3.66l1.48.1a2.75 2.75 0 0 1 .1 1.78l-.51.41v3l-.64.6c0 .13-.05.29-.06.45-.01.16-.08.45 0 .49.95.41.41 1.23.83 1.78s.69.94 1 1.41l-.44.35c-.05.15-.09.31-.14.46-.3.74.86 1.09.77 1.78.67.61.81 1.53 1.82 1.9v1.05l.46.37c.06.06.17.13.17.2v5c1 .68.91 1.83 1.9 2.54V248l-.6.53v1l-.68.57c.14 1 1.54 1.72 1.31 2.86l-.64.8c-.21.57.95.73.64 1.32 1.29.77 1.51 2.07 2.52 3.15V261l.61.59c-.62.68-.75 1.66-1.82 2v1.1l1.95 1.54v2.54l.59.46v6c.28.37.91.56.67 1.1l1 .73h1.06c1.15.33 1 1.29 1.88 1.81v2.56l.59.47v3l1.29 1.07v5.59l-.55.43v3.68l.53.41c-.59.62-1.41 1.12-1.92 1.58a1.2 1.2 0 0 0 .95 1.16 1.87 1.87 0 0 1 1.79 1.45c0 .14.29.24.48.39v1.59l1.33.72v1.27l.61.48a13.11 13.11 0 0 1 0 2.08l-1.16.92a2.64 2.64 0 0 0 0 1.69c.87.13.87.13 2.47-1.13v-.49l1.24-1c0-.24 0-.57.08-1.17l1-.56.86.67v1l.64.55c-.81.26-.39 1.12-1.21 1.43v4l-.63.63a2.6 2.6 0 0 0 .05 1.65l.49.39v2.39c.46.64.86 1.19 1.33 1.82v2.42c.92.35.5 1.22 1.28 1.51zm-96.52-137.63c-1.25-.14-.6-1.13-1.51-1.36v-6.57c0-.07-.11-.13-.17-.2l-.46-.36v-2c-.22-.18-.64-.39-.62-.55.09-.65-.61-.84-1-1.22-1.18.06-1.48-.86-2.36-1.3v-2c-.48-.67-.82-1.16-1.21-1.69v-1.79l1.33-1.86v-2.38l.52-.41v-1.63l-.57-.46v-4.76c.026-.158.08-.31.16-.45l.47-.36v-1.51l.64-.55v-3c-.76-.38-.66-1.18-1.23-1.58v-2.47l.54-.55-.59-.46v-6a2.9 2.9 0 0 1 0-.51c0-.07.1-.13.27-.33l1-.73v-3.92l-1.86-2.79v-4.4c.15-.37.65-.39.43-.71l-.5-.38v-6.57c0-.07-.12-.13-.27-.27l-.37-.27v-4.12a4.3 4.3 0 0 1-1.8-2.06c.85-.71.89-1.79 1.8-2.47.05 0 0-.16 0-.25v-.74c.25-.27.73-.41.6-1-.92-.45-.72-1.62-1.62-2.27-.9-.65-1.08-1.79-2.2-2.29-.12-.44.22-.89-.29-1.23h-.28l-1.29.63c-.1.58-.05.95-.24 1.21s-.6.47-.47.91l.61.53v2c-.28.31-.87.52-.63 1 .25.27.73.4.67.69-.11.61-1 .83-.68 1.44.32.61-.65.67-.61 1.06.05.56-.75.74-.74 1.31 0 .3-.71.58-1 .93-.29.35-.36.92-.91 1.24v3c-1.09.38-.14 1.51-1.16 1.91-.06.57-.12 1.14-.18 1.66l-.54.43v4.52l-.66.58v2l-2.21 1.65c-.69 1.1-1.19 1.86-1.68 2.63v.76c.29.33.88.54.65 1l-.67.57v1.77c-.51.84-.7 1.65-1.31 2.08-.89.63-.12 1.71-1.24 2.17v1.42l-1.33 1.8v1.39l-.59.46v2.61c-.87.22-.44.95-1 1.25-.56.3.08 1.14-.67 1.57-.48.27-.27 1-.92 1.2v2l-.67.57v1l-.66.6v3.84l-1.33 1.94v1.81l-.55.43v2.51l-.67.56v1l-.66.56v1.49l-.59.46v2.84l-1.4 2v2.35c-.77.34-.44 1.17-1.22 1.43v2.53l-.64.59v1l-.67.6v2.48l-.55.43v2.28l1.51 1.57.88-.55h3.75l.52-.41a1.57 1.57 0 0 1 .3-.05h8.71c.09 0 .17-.08.26-.13l.46-.36.68.49h1.27l.72-.53h1.89l.55-.43H125c.47.38.93.76 1.54.17v-.5l.93-.73H132l.67.49.69-.5c1.36.13 2.29-.57 3.47-1.06h1.19l2.32-1.37z" fill-rule="nonzero" fill="#E9624E"/></svg>